<!DOCTYPE svg PUBLIC "-//W3C//DTD SVG 20010904//EN" "http://www.w3.org/TR/2001/REC-SVG-20010904/DTD/svg10.dtd">
<svg version="1.0" xmlns="http://www.w3.org/2000/svg" width="30px" height="30px" viewBox="0 0 300 300" preserveAspectRatio="xMidYMid meet">
<g id="layer101" fill="#4abfa1" stroke="none">
 <path d="M165 220 c5 -16 2 -20 -14 -20 -12 0 -21 -7 -21 -15 0 -9 9 -15 25 -15 18 0 25 -5 25 -20 0 -11 7 -20 16 -20 11 0 14 6 9 20 -5 16 -2 20 19 20 18 0 24 4 20 15 -4 8 -17 15 -30 15 -17 0 -24 6 -24 20 0 11 -7 20 -16 20 -11 0 -14 -6 -9 -20z"/>
 </g>
<g id="layer102" fill="#f09a4c" stroke="none">
 <path d="M120 110 c0 -11 -7 -20 -15 -20 -24 0 -17 -18 8 -22 14 -2 23 -11 25 -26 2 -12 9 -22 16 -22 9 0 12 9 8 25 -3 20 0 25 17 25 11 0 21 5 21 10 0 6 -11 10 -24 10 -15 0 -26 7 -29 20 -3 11 -10 20 -16 20 -6 0 -11 -9 -11 -20z"/>
 </g>

</svg>