<!DOCTYPE svg PUBLIC "-//W3C//DTD SVG 20010904//EN" "http://www.w3.org/TR/2001/REC-SVG-20010904/DTD/svg10.dtd">
<svg version="1.0" xmlns="http://www.w3.org/2000/svg" width="272px" height="99px" viewBox="0 0 2720 990" preserveAspectRatio="xMidYMid meet">
<g id="layer101" fill="#48bfa1" stroke="none">
 <path d="M1443 713 c-7 -2 -13 -11 -13 -19 0 -10 13 -14 48 -14 48 0 72 -12 72 -37 0 -9 -6 -10 -26 -2 -28 10 -64 3 -76 -15 -17 -26 -8 -76 21 -108 24 -27 36 -32 88 -36 33 -2 63 0 66 5 6 9 -11 95 -33 174 -6 23 -19 40 -35 47 -26 12 -89 15 -112 5z m106 -117 c7 -8 16 -28 21 -45 8 -30 7 -31 -20 -31 -37 0 -60 24 -60 61 0 24 4 29 24 29 13 0 29 -6 35 -14z"/>
 <path d="M1901 653 c1 -10 8 -47 17 -83 14 -54 21 -66 40 -68 26 -4 26 -7 4 88 -15 63 -21 75 -40 78 -16 3 -22 -2 -21 -15z"/>
 <path d="M952 633 c54 -212 50 -203 84 -203 28 0 32 3 38 38 3 20 6 52 6 70 0 44 11 35 55 -43 33 -61 38 -65 71 -65 33 0 34 1 27 28 -3 15 -14 63 -22 107 -14 70 -19 80 -38 83 -27 4 -26 6 -8 -78 13 -61 12 -64 -3 -43 -9 11 -29 44 -44 72 -43 79 -77 66 -78 -29 0 -52 -16 -71 -25 -29 -19 93 -26 109 -47 109 -14 0 -19 -5 -16 -17z"/>
 <path d="M1253 643 c-17 -6 -17 -59 -1 -70 7 -4 33 -15 57 -24 63 -22 68 -43 7 -37 -25 3 -46 4 -46 2 0 -16 39 -34 73 -34 70 0 73 7 56 92 -13 64 -17 73 -38 76 -22 3 -23 2 -16 -38 7 -41 6 -42 -16 -35 -49 15 -61 45 -19 45 13 0 17 5 14 15 -6 14 -45 19 -71 8z"/>
 <path d="M1772 643 c-23 -9 -34 -53 -22 -89 15 -46 54 -74 101 -74 62 0 62 36 -1 42 -26 2 -38 10 -47 30 -19 38 -7 58 33 58 36 0 42 8 22 28 -12 12 -62 15 -86 5z"/>
 <path d="M2006 634 c-9 -8 -16 -19 -16 -24 0 -20 39 -51 79 -63 63 -18 68 -42 7 -35 -25 3 -46 2 -46 -1 0 -19 29 -31 71 -31 68 0 75 13 54 100 -14 58 -21 70 -37 70 -18 0 -20 -4 -14 -40 7 -43 3 -46 -38 -30 -35 13 -34 40 0 40 22 0 25 2 14 15 -16 20 -54 19 -74 -1z"/>
 <path d="M2190 643 c0 -4 8 -43 17 -85 15 -70 19 -78 40 -78 13 0 23 5 23 12 0 9 3 9 12 0 14 -14 67 -16 87 -3 15 10 10 87 -9 136 -13 34 -55 36 -46 3 3 -13 9 -42 12 -65 6 -41 5 -43 -18 -43 -33 0 -47 18 -62 77 -9 37 -17 49 -34 51 -12 2 -22 0 -22 -5z"/>
 <path d="M2407 643 c-18 -17 -5 -33 28 -33 40 0 46 -17 15 -45 -25 -23 -26 -61 -1 -75 11 -5 36 -10 55 -10 30 0 36 4 36 21 0 16 -4 19 -20 14 -11 -3 -27 -2 -36 3 -15 8 -14 12 9 33 33 28 35 63 5 83 -23 16 -79 22 -91 9z"/>
 <path d="M1650 611 c0 -5 7 -41 16 -80 15 -65 18 -71 41 -71 18 0 24 4 19 15 -3 9 -11 45 -18 80 -10 58 -14 65 -35 65 -13 0 -23 -4 -23 -9z"/>
 </g>
<g id="layer102" fill="#ee9a4d" stroke="none">
 <path d="M1855 860 c6 -27 4 -30 -18 -30 -30 0 -36 -6 -30 -30 3 -12 16 -20 36 -22 24 -2 33 -9 37 -28 4 -16 14 -26 28 -28 18 -3 22 2 22 22 0 19 7 27 25 32 18 4 25 13 25 30 0 21 -5 24 -34 24 -29 0 -34 4 -39 30 -5 24 -12 30 -33 30 -23 0 -25 -3 -19 -30z"/>
 <path d="M138 643 c-3 -4 -3 -54 0 -111 l4 -103 35 3 c34 3 36 5 57 73 l23 70 15 -35 c8 -19 20 -52 27 -72 11 -34 16 -38 47 -38 l34 0 0 111 c0 109 0 110 -22 107 -21 -3 -23 -9 -26 -73 l-3 -70 -27 70 c-21 54 -32 70 -47 70 -16 0 -25 -15 -45 -75 l-25 -75 -5 75 c-4 59 -8 75 -22 78 -9 2 -18 -1 -20 -5z"/>
 <path d="M442 644 c-7 -3 -17 -14 -22 -25 -17 -30 5 -57 55 -70 29 -7 45 -17 45 -26 0 -12 -9 -15 -45 -11 -41 5 -44 4 -34 -13 7 -15 21 -19 57 -19 27 0 53 5 60 12 7 7 12 42 12 86 0 70 -1 73 -22 70 -19 -2 -24 -10 -26 -41 -3 -34 -6 -37 -25 -31 -44 13 -48 44 -6 44 29 0 18 25 -12 27 -13 1 -30 -1 -37 -3z"/>
 <path d="M635 634 c-12 -13 -16 -29 -13 -63 3 -33 0 -50 -12 -58 -13 -12 -13 -14 3 -27 9 -7 17 -18 17 -25 0 -6 9 -11 20 -11 11 0 20 7 20 15 0 8 9 15 20 15 13 0 20 7 20 20 0 13 -7 20 -20 20 -17 0 -20 7 -20 45 0 39 3 45 21 45 14 0 19 5 17 18 -4 23 -51 28 -73 6z"/>
 <path d="M740 541 l0 -111 25 0 c22 0 25 4 25 37 0 29 3 34 12 25 16 -16 80 -16 96 0 7 7 12 42 12 86 0 70 -1 73 -22 70 -20 -3 -23 -9 -24 -53 -2 -74 -2 -75 -28 -75 -33 0 -44 18 -48 75 -3 43 -6 50 -25 53 -23 3 -23 2 -23 -107z"/>
 <path d="M1707 413 c-4 -3 -7 -17 -7 -30 0 -12 -6 -23 -12 -23 -26 0 -40 -17 -33 -39 4 -15 15 -21 35 -21 22 0 30 -6 39 -31 14 -39 46 -37 46 4 -1 15 5 28 12 28 27 3 31 4 38 11 4 3 4 16 0 27 -4 15 -15 21 -36 21 -25 0 -30 5 -35 30 -6 28 -30 40 -47 23z"/>
 </g>

</svg>